<svg xmlns="http://www.w3.org/2000/svg" viewBox="0 0 1400 800" width="1400" height="800"><rect width="1400" height="800" fill="#DDE5EE"/><rect y="620" width="1400" height="180" fill="#C2C7CE"/><rect x="80" y="200" width="1240" height="420" fill="#D8DADD"/><rect x="80" y="184" width="1240" height="20" fill="#6B7280"/><rect x="100" y="430" width="3" height="190" fill="#C4C7CB"/><rect x="140" y="430" width="3" height="190" fill="#C4C7CB"/><rect x="180" y="430" width="3" height="190" fill="#C4C7CB"/><rect x="220" y="430" width="3" height="190" fill="#C4C7CB"/><rect x="260" y="430" width="3" height="190" fill="#C4C7CB"/><rect x="300" y="430" width="3" height="190" fill="#C4C7CB"/><rect x="340" y="430" width="3" height="190" fill="#C4C7CB"/><rect x="380" y="430" width="3" height="190" fill="#C4C7CB"/><rect x="420" y="430" width="3" height="190" fill="#C4C7CB"/><rect x="460" y="430" width="3" height="190" fill="#C4C7CB"/><rect x="500" y="430" width="3" height="190" fill="#C4C7CB"/><rect x="540" y="430" width="3" height="190" fill="#C4C7CB"/><rect x="580" y="430" width="3" height="190" fill="#C4C7CB"/><rect x="620" y="430" width="3" height="190" fill="#C4C7CB"/><rect x="660" y="430" width="3" height="190" fill="#C4C7CB"/><rect x="700" y="430" width="3" height="190" fill="#C4C7CB"/><rect x="740" y="430" width="3" height="190" fill="#C4C7CB"/><rect x="780" y="430" width="3" height="190" fill="#C4C7CB"/><rect x="820" y="430" width="3" height="190" fill="#C4C7CB"/><rect x="860" y="430" width="3" height="190" fill="#C4C7CB"/><rect x="900" y="430" width="3" height="190" fill="#C4C7CB"/><rect x="940" y="430" width="3" height="190" fill="#C4C7CB"/><rect x="980" y="430" width="3" height="190" fill="#C4C7CB"/><rect x="1020" y="430" width="3" height="190" fill="#C4C7CB"/><rect x="1060" y="430" width="3" height="190" fill="#C4C7CB"/><rect x="1100" y="430" width="3" height="190" fill="#C4C7CB"/><rect x="1140" y="430" width="3" height="190" fill="#C4C7CB"/><rect x="1180" y="430" width="3" height="190" fill="#C4C7CB"/><rect x="1220" y="430" width="3" height="190" fill="#C4C7CB"/><rect x="1260" y="430" width="3" height="190" fill="#C4C7CB"/><rect x="1300" y="430" width="3" height="190" fill="#C4C7CB"/><rect x="130" y="445" width="58" height="44" fill="#AEB6C2"/><rect x="215" y="445" width="58" height="44" fill="#AEB6C2"/><rect x="300" y="445" width="58" height="44" fill="#AEB6C2"/><rect x="385" y="445" width="58" height="44" fill="#AEB6C2"/><rect x="470" y="445" width="58" height="44" fill="#AEB6C2"/><rect x="850" y="445" width="58" height="44" fill="#AEB6C2"/><rect x="935" y="445" width="58" height="44" fill="#AEB6C2"/><rect x="1020" y="445" width="58" height="44" fill="#AEB6C2"/><rect x="1105" y="445" width="58" height="44" fill="#AEB6C2"/><rect x="1190" y="445" width="58" height="44" fill="#AEB6C2"/><rect x="630" y="430" width="180" height="190" fill="#6B7280"/><rect x="630" y="450" width="180" height="4" fill="#5B6470"/><rect x="630" y="474" width="180" height="4" fill="#5B6470"/><rect x="630" y="498" width="180" height="4" fill="#5B6470"/><rect x="630" y="522" width="180" height="4" fill="#5B6470"/><rect x="630" y="546" width="180" height="4" fill="#5B6470"/><rect x="630" y="570" width="180" height="4" fill="#5B6470"/><rect x="630" y="594" width="180" height="4" fill="#5B6470"/><rect x="630" y="618" width="180" height="4" fill="#5B6470"/><rect x="80" y="230" width="1240" height="160" fill="#16418C"/><rect x="80" y="390" width="1240" height="12" fill="#FF7A1A"/><g transform="translate(470.00 246.79) scale(0.8600)"><polygon points="84.0,2.0 3.0,145.0 165.0,145.0" fill="#FFFFFF"/><polygon points="84.0,58.0 50.6,117.0 117.4,117.0" fill="#16418C"/><line x1="84.0" y1="2.0" x2="84.0" y2="58.0" stroke="#16418C" stroke-width="3.6"/><line x1="3.0" y1="145.0" x2="50.6" y2="117.0" stroke="#16418C" stroke-width="3.6"/><line x1="165.0" y1="145.0" x2="117.4" y2="117.0" stroke="#16418C" stroke-width="3.6"/><polygon points="84.0,71.0 61.6,110.5 106.4,110.5" fill="#FF7A1A"/></g><g fill="#FFFFFF" fill-rule="evenodd"><path transform="translate(664.48 250.00) scale(0.860000)" d="M0 100 L0 0 L26 0 L48 44 L48 0 L74 0 L74 100 L48 100 L26 56 L26 100 Z"/><path transform="translate(733.28 250.00) scale(0.860000)" d="M0 0 L26 0 L26 100 L0 100 Z"/><path transform="translate(760.80 250.00) scale(0.860000)" d="M0 0 L26 0 L37 22 L48 0 L74 0 L50 48 L50 100 L24 100 L24 48 Z"/><path transform="translate(810.68 250.00) scale(0.860000)" d="M50 0 L76 0 L126 100 L100 100 L92 84 L34 84 L26 100 L0 100 Z M63 26 L81 62 L45 62 Z"/><polygon points="63,30 78.4,59.2 47.6,59.2" fill="#FF7A1A" transform="translate(810.68 250.00) scale(0.860000)"/></g><g fill="#BFD0EE"><path transform="translate(665.48 366.00) scale(0.008301 -0.008301)" d="M795 212Q1062 212 1166 480L1423 383Q1340 179 1179.5 79.5Q1019 -20 795 -20Q455 -20 269.5 172.5Q84 365 84 711Q84 1058 263.0 1244.0Q442 1430 782 1430Q1030 1430 1186.0 1330.5Q1342 1231 1405 1038L1145 967Q1112 1073 1015.5 1135.5Q919 1198 788 1198Q588 1198 484.5 1074.0Q381 950 381 711Q381 468 487.5 340.0Q594 212 795 212Z"/><path transform="translate(677.76 366.00) scale(0.008301 -0.008301)" d="M1507 711Q1507 491 1420.0 324.0Q1333 157 1171.0 68.5Q1009 -20 793 -20Q461 -20 272.5 175.5Q84 371 84 711Q84 1050 272.0 1240.0Q460 1430 795 1430Q1130 1430 1318.5 1238.0Q1507 1046 1507 711ZM1206 711Q1206 939 1098.0 1068.5Q990 1198 795 1198Q597 1198 489.0 1069.5Q381 941 381 711Q381 479 491.5 345.5Q602 212 793 212Q991 212 1098.5 342.0Q1206 472 1206 711Z"/><path transform="translate(690.98 366.00) scale(0.008301 -0.008301)" d="M995 0 381 1085Q399 927 399 831V0H137V1409H474L1097 315Q1079 466 1079 590V1409H1341V0Z"/><path transform="translate(703.26 366.00) scale(0.008301 -0.008301)" d="M795 212Q1062 212 1166 480L1423 383Q1340 179 1179.5 79.5Q1019 -20 795 -20Q455 -20 269.5 172.5Q84 365 84 711Q84 1058 263.0 1244.0Q442 1430 782 1430Q1030 1430 1186.0 1330.5Q1342 1231 1405 1038L1145 967Q1112 1073 1015.5 1135.5Q919 1198 788 1198Q588 1198 484.5 1074.0Q381 950 381 711Q381 468 487.5 340.0Q594 212 795 212Z"/><path transform="translate(715.53 366.00) scale(0.008301 -0.008301)" d="M1105 0 778 535H432V0H137V1409H841Q1093 1409 1230.0 1300.5Q1367 1192 1367 989Q1367 841 1283.0 733.5Q1199 626 1056 592L1437 0ZM1070 977Q1070 1180 810 1180H432V764H818Q942 764 1006.0 820.0Q1070 876 1070 977Z"/><path transform="translate(727.81 366.00) scale(0.008301 -0.008301)" d="M137 0V1409H1245V1181H432V827H1184V599H432V228H1286V0Z"/><path transform="translate(739.15 366.00) scale(0.008301 -0.008301)" d="M773 1181V0H478V1181H23V1409H1229V1181Z"/><path transform="translate(749.53 366.00) scale(0.008301 -0.008301)" d="M137 0V1409H1245V1181H432V827H1184V599H432V228H1286V0Z"/><path transform="translate(770.32 366.00) scale(0.008301 -0.008301)" d="M651 676Q651 555 564.0 468.0Q477 381 356 381Q237 381 151.0 467.5Q65 554 65 676Q65 798 150.5 883.5Q236 969 356 969Q478 969 564.5 883.5Q651 798 651 676Z"/><path transform="translate(785.72 366.00) scale(0.008301 -0.008301)" d="M1386 402Q1386 210 1242.0 105.0Q1098 0 842 0H137V1409H782Q1040 1409 1172.5 1319.5Q1305 1230 1305 1055Q1305 935 1238.5 852.5Q1172 770 1036 741Q1207 721 1296.5 633.5Q1386 546 1386 402ZM1008 1015Q1008 1110 947.5 1150.0Q887 1190 768 1190H432V841H770Q895 841 951.5 884.5Q1008 928 1008 1015ZM1090 425Q1090 623 806 623H432V219H817Q959 219 1024.5 270.5Q1090 322 1090 425Z"/><path transform="translate(797.99 366.00) scale(0.008301 -0.008301)" d="M137 0V1409H432V228H1188V0Z"/><path transform="translate(808.38 366.00) scale(0.008301 -0.008301)" d="M1507 711Q1507 491 1420.0 324.0Q1333 157 1171.0 68.5Q1009 -20 793 -20Q461 -20 272.5 175.5Q84 371 84 711Q84 1050 272.0 1240.0Q460 1430 795 1430Q1130 1430 1318.5 1238.0Q1507 1046 1507 711ZM1206 711Q1206 939 1098.0 1068.5Q990 1198 795 1198Q597 1198 489.0 1069.5Q381 941 381 711Q381 479 491.5 345.5Q602 212 793 212Q991 212 1098.5 342.0Q1206 472 1206 711Z"/><path transform="translate(821.60 366.00) scale(0.008301 -0.008301)" d="M795 212Q1062 212 1166 480L1423 383Q1340 179 1179.5 79.5Q1019 -20 795 -20Q455 -20 269.5 172.5Q84 365 84 711Q84 1058 263.0 1244.0Q442 1430 782 1430Q1030 1430 1186.0 1330.5Q1342 1231 1405 1038L1145 967Q1112 1073 1015.5 1135.5Q919 1198 788 1198Q588 1198 484.5 1074.0Q381 950 381 711Q381 468 487.5 340.0Q594 212 795 212Z"/><path transform="translate(833.88 366.00) scale(0.008301 -0.008301)" d="M1112 0 606 647 432 514V0H137V1409H432V770L1067 1409H1411L809 813L1460 0Z"/><path transform="translate(846.15 366.00) scale(0.008301 -0.008301)" d="M1286 406Q1286 199 1132.5 89.5Q979 -20 682 -20Q411 -20 257.0 76.0Q103 172 59 367L344 414Q373 302 457.0 251.5Q541 201 690 201Q999 201 999 389Q999 449 963.5 488.0Q928 527 863.5 553.0Q799 579 616 616Q458 653 396.0 675.5Q334 698 284.0 728.5Q234 759 199.0 802.0Q164 845 144.5 903.0Q125 961 125 1036Q125 1227 268.5 1328.5Q412 1430 686 1430Q948 1430 1079.5 1348.0Q1211 1266 1249 1077L963 1038Q941 1129 873.5 1175.0Q806 1221 680 1221Q412 1221 412 1053Q412 998 440.5 963.0Q469 928 525.0 903.5Q581 879 752 842Q955 799 1042.5 762.5Q1130 726 1181.0 677.5Q1232 629 1259.0 561.5Q1286 494 1286 406Z"/><path transform="translate(866.94 366.00) scale(0.008301 -0.008301)" d="M651 676Q651 555 564.0 468.0Q477 381 356 381Q237 381 151.0 467.5Q65 554 65 676Q65 798 150.5 883.5Q236 969 356 969Q478 969 564.5 883.5Q651 798 651 676Z"/><path transform="translate(882.34 366.00) scale(0.008301 -0.008301)" d="M1133 0 1008 360H471L346 0H51L565 1409H913L1425 0ZM739 1192 733 1170Q723 1134 709.0 1088.0Q695 1042 537 582H942L803 987L760 1123Z"/><path transform="translate(894.61 366.00) scale(0.008301 -0.008301)" d="M806 211Q921 211 1029.0 244.5Q1137 278 1196 330V525H852V743H1466V225Q1354 110 1174.5 45.0Q995 -20 798 -20Q454 -20 269.0 170.5Q84 361 84 711Q84 1059 270.0 1244.5Q456 1430 805 1430Q1301 1430 1436 1063L1164 981Q1120 1088 1026.0 1143.0Q932 1198 805 1198Q597 1198 489.0 1072.0Q381 946 381 711Q381 472 492.5 341.5Q604 211 806 211Z"/><path transform="translate(907.84 366.00) scale(0.008301 -0.008301)" d="M806 211Q921 211 1029.0 244.5Q1137 278 1196 330V525H852V743H1466V225Q1354 110 1174.5 45.0Q995 -20 798 -20Q454 -20 269.0 170.5Q84 361 84 711Q84 1059 270.0 1244.5Q456 1430 805 1430Q1301 1430 1436 1063L1164 981Q1120 1088 1026.0 1143.0Q932 1198 805 1198Q597 1198 489.0 1072.0Q381 946 381 711Q381 472 492.5 341.5Q604 211 806 211Z"/><path transform="translate(921.06 366.00) scale(0.008301 -0.008301)" d="M1105 0 778 535H432V0H137V1409H841Q1093 1409 1230.0 1300.5Q1367 1192 1367 989Q1367 841 1283.0 733.5Q1199 626 1056 592L1437 0ZM1070 977Q1070 1180 810 1180H432V764H818Q942 764 1006.0 820.0Q1070 876 1070 977Z"/><path transform="translate(933.34 366.00) scale(0.008301 -0.008301)" d="M137 0V1409H1245V1181H432V827H1184V599H432V228H1286V0Z"/><path transform="translate(944.68 366.00) scale(0.008301 -0.008301)" d="M806 211Q921 211 1029.0 244.5Q1137 278 1196 330V525H852V743H1466V225Q1354 110 1174.5 45.0Q995 -20 798 -20Q454 -20 269.0 170.5Q84 361 84 711Q84 1059 270.0 1244.5Q456 1430 805 1430Q1301 1430 1436 1063L1164 981Q1120 1088 1026.0 1143.0Q932 1198 805 1198Q597 1198 489.0 1072.0Q381 946 381 711Q381 472 492.5 341.5Q604 211 806 211Z"/><path transform="translate(957.90 366.00) scale(0.008301 -0.008301)" d="M1133 0 1008 360H471L346 0H51L565 1409H913L1425 0ZM739 1192 733 1170Q723 1134 709.0 1088.0Q695 1042 537 582H942L803 987L760 1123Z"/><path transform="translate(970.18 366.00) scale(0.008301 -0.008301)" d="M773 1181V0H478V1181H23V1409H1229V1181Z"/><path transform="translate(980.56 366.00) scale(0.008301 -0.008301)" d="M137 0V1409H1245V1181H432V827H1184V599H432V228H1286V0Z"/><path transform="translate(991.90 366.00) scale(0.008301 -0.008301)" d="M1286 406Q1286 199 1132.5 89.5Q979 -20 682 -20Q411 -20 257.0 76.0Q103 172 59 367L344 414Q373 302 457.0 251.5Q541 201 690 201Q999 201 999 389Q999 449 963.5 488.0Q928 527 863.5 553.0Q799 579 616 616Q458 653 396.0 675.5Q334 698 284.0 728.5Q234 759 199.0 802.0Q164 845 144.5 903.0Q125 961 125 1036Q125 1227 268.5 1328.5Q412 1430 686 1430Q948 1430 1079.5 1348.0Q1211 1266 1249 1077L963 1038Q941 1129 873.5 1175.0Q806 1221 680 1221Q412 1221 412 1053Q412 998 440.5 963.0Q469 928 525.0 903.5Q581 879 752 842Q955 799 1042.5 762.5Q1130 726 1181.0 677.5Q1232 629 1259.0 561.5Q1286 494 1286 406Z"/></g><rect x="150" y="560" width="30" height="18" fill="#9CA3AF"/><rect x="184" y="560" width="30" height="18" fill="#9CA3AF"/><rect x="218" y="560" width="30" height="18" fill="#9CA3AF"/><rect x="252" y="560" width="30" height="18" fill="#9CA3AF"/><rect x="150" y="538" width="30" height="18" fill="#9CA3AF"/><rect x="184" y="538" width="30" height="18" fill="#9CA3AF"/><rect x="218" y="538" width="30" height="18" fill="#9CA3AF"/><rect x="252" y="538" width="30" height="18" fill="#9CA3AF"/><rect x="150" y="516" width="30" height="18" fill="#9CA3AF"/><rect x="184" y="516" width="30" height="18" fill="#9CA3AF"/><rect x="218" y="516" width="30" height="18" fill="#9CA3AF"/><rect x="252" y="516" width="30" height="18" fill="#9CA3AF"/><rect x="144" y="580" width="148" height="10" fill="#7C5A3A"/><rect x="330" y="585" width="30" height="18" fill="#9CA3AF"/><rect x="364" y="585" width="30" height="18" fill="#9CA3AF"/><rect x="398" y="585" width="30" height="18" fill="#9CA3AF"/><rect x="432" y="585" width="30" height="18" fill="#9CA3AF"/><rect x="330" y="563" width="30" height="18" fill="#9CA3AF"/><rect x="364" y="563" width="30" height="18" fill="#9CA3AF"/><rect x="398" y="563" width="30" height="18" fill="#9CA3AF"/><rect x="432" y="563" width="30" height="18" fill="#9CA3AF"/><rect x="330" y="541" width="30" height="18" fill="#9CA3AF"/><rect x="364" y="541" width="30" height="18" fill="#9CA3AF"/><rect x="398" y="541" width="30" height="18" fill="#9CA3AF"/><rect x="432" y="541" width="30" height="18" fill="#9CA3AF"/><rect x="324" y="605" width="148" height="10" fill="#7C5A3A"/><g fill="#9CA3AF"><path transform="translate(507.31 760.00) scale(0.009766 -0.009766)" d="M432 1181V745H1153V517H432V0H137V1409H1176V1181Z"/><path transform="translate(521.93 760.00) scale(0.009766 -0.009766)" d="M1133 0 1008 360H471L346 0H51L565 1409H913L1425 0ZM739 1192 733 1170Q723 1134 709.0 1088.0Q695 1042 537 582H942L803 987L760 1123Z"/><path transform="translate(538.77 760.00) scale(0.009766 -0.009766)" d="M795 212Q1062 212 1166 480L1423 383Q1340 179 1179.5 79.5Q1019 -20 795 -20Q455 -20 269.5 172.5Q84 365 84 711Q84 1058 263.0 1244.0Q442 1430 782 1430Q1030 1430 1186.0 1330.5Q1342 1231 1405 1038L1145 967Q1112 1073 1015.5 1135.5Q919 1198 788 1198Q588 1198 484.5 1074.0Q381 950 381 711Q381 468 487.5 340.0Q594 212 795 212Z"/><path transform="translate(555.61 760.00) scale(0.009766 -0.009766)" d="M773 1181V0H478V1181H23V1409H1229V1181Z"/><path transform="translate(570.23 760.00) scale(0.009766 -0.009766)" d="M1507 711Q1507 491 1420.0 324.0Q1333 157 1171.0 68.5Q1009 -20 793 -20Q461 -20 272.5 175.5Q84 371 84 711Q84 1050 272.0 1240.0Q460 1430 795 1430Q1130 1430 1318.5 1238.0Q1507 1046 1507 711ZM1206 711Q1206 939 1098.0 1068.5Q990 1198 795 1198Q597 1198 489.0 1069.5Q381 941 381 711Q381 479 491.5 345.5Q602 212 793 212Q991 212 1098.5 342.0Q1206 472 1206 711Z"/><path transform="translate(588.19 760.00) scale(0.009766 -0.009766)" d="M1105 0 778 535H432V0H137V1409H841Q1093 1409 1230.0 1300.5Q1367 1192 1367 989Q1367 841 1283.0 733.5Q1199 626 1056 592L1437 0ZM1070 977Q1070 1180 810 1180H432V764H818Q942 764 1006.0 820.0Q1070 876 1070 977Z"/><path transform="translate(605.03 760.00) scale(0.009766 -0.009766)" d="M831 578V0H537V578L35 1409H344L682 813L1024 1409H1333Z"/><path transform="translate(628.73 760.00) scale(0.009766 -0.009766)" d="M1286 406Q1286 199 1132.5 89.5Q979 -20 682 -20Q411 -20 257.0 76.0Q103 172 59 367L344 414Q373 302 457.0 251.5Q541 201 690 201Q999 201 999 389Q999 449 963.5 488.0Q928 527 863.5 553.0Q799 579 616 616Q458 653 396.0 675.5Q334 698 284.0 728.5Q234 759 199.0 802.0Q164 845 144.5 903.0Q125 961 125 1036Q125 1227 268.5 1328.5Q412 1430 686 1430Q948 1430 1079.5 1348.0Q1211 1266 1249 1077L963 1038Q941 1129 873.5 1175.0Q806 1221 680 1221Q412 1221 412 1053Q412 998 440.5 963.0Q469 928 525.0 903.5Q581 879 752 842Q955 799 1042.5 762.5Q1130 726 1181.0 677.5Q1232 629 1259.0 561.5Q1286 494 1286 406Z"/><path transform="translate(644.47 760.00) scale(0.009766 -0.009766)" d="M137 0V1409H432V0Z"/><path transform="translate(652.42 760.00) scale(0.009766 -0.009766)" d="M806 211Q921 211 1029.0 244.5Q1137 278 1196 330V525H852V743H1466V225Q1354 110 1174.5 45.0Q995 -20 798 -20Q454 -20 269.0 170.5Q84 361 84 711Q84 1059 270.0 1244.5Q456 1430 805 1430Q1301 1430 1436 1063L1164 981Q1120 1088 1026.0 1143.0Q932 1198 805 1198Q597 1198 489.0 1072.0Q381 946 381 711Q381 472 492.5 341.5Q604 211 806 211Z"/><path transform="translate(670.38 760.00) scale(0.009766 -0.009766)" d="M995 0 381 1085Q399 927 399 831V0H137V1409H474L1097 315Q1079 466 1079 590V1409H1341V0Z"/><path transform="translate(687.22 760.00) scale(0.009766 -0.009766)" d="M1386 402Q1386 210 1242.0 105.0Q1098 0 842 0H137V1409H782Q1040 1409 1172.5 1319.5Q1305 1230 1305 1055Q1305 935 1238.5 852.5Q1172 770 1036 741Q1207 721 1296.5 633.5Q1386 546 1386 402ZM1008 1015Q1008 1110 947.5 1150.0Q887 1190 768 1190H432V841H770Q895 841 951.5 884.5Q1008 928 1008 1015ZM1090 425Q1090 623 806 623H432V219H817Q959 219 1024.5 270.5Q1090 322 1090 425Z"/><path transform="translate(704.07 760.00) scale(0.009766 -0.009766)" d="M1507 711Q1507 491 1420.0 324.0Q1333 157 1171.0 68.5Q1009 -20 793 -20Q461 -20 272.5 175.5Q84 371 84 711Q84 1050 272.0 1240.0Q460 1430 795 1430Q1130 1430 1318.5 1238.0Q1507 1046 1507 711ZM1206 711Q1206 939 1098.0 1068.5Q990 1198 795 1198Q597 1198 489.0 1069.5Q381 941 381 711Q381 479 491.5 345.5Q602 212 793 212Q991 212 1098.5 342.0Q1206 472 1206 711Z"/><path transform="translate(722.02 760.00) scale(0.009766 -0.009766)" d="M1133 0 1008 360H471L346 0H51L565 1409H913L1425 0ZM739 1192 733 1170Q723 1134 709.0 1088.0Q695 1042 537 582H942L803 987L760 1123Z"/><path transform="translate(738.87 760.00) scale(0.009766 -0.009766)" d="M1105 0 778 535H432V0H137V1409H841Q1093 1409 1230.0 1300.5Q1367 1192 1367 989Q1367 841 1283.0 733.5Q1199 626 1056 592L1437 0ZM1070 977Q1070 1180 810 1180H432V764H818Q942 764 1006.0 820.0Q1070 876 1070 977Z"/><path transform="translate(755.71 760.00) scale(0.009766 -0.009766)" d="M1393 715Q1393 497 1307.5 334.5Q1222 172 1065.5 86.0Q909 0 707 0H137V1409H647Q1003 1409 1198.0 1229.5Q1393 1050 1393 715ZM1096 715Q1096 942 978.0 1061.5Q860 1181 641 1181H432V228H682Q872 228 984.0 359.0Q1096 490 1096 715Z"/><path transform="translate(780.51 760.00) scale(0.009766 -0.009766)" d="M795 212Q1062 212 1166 480L1423 383Q1340 179 1179.5 79.5Q1019 -20 795 -20Q455 -20 269.5 172.5Q84 365 84 711Q84 1058 263.0 1244.0Q442 1430 782 1430Q1030 1430 1186.0 1330.5Q1342 1231 1405 1038L1145 967Q1112 1073 1015.5 1135.5Q919 1198 788 1198Q588 1198 484.5 1074.0Q381 950 381 711Q381 468 487.5 340.0Q594 212 795 212Z"/><path transform="translate(797.35 760.00) scale(0.009766 -0.009766)" d="M1507 711Q1507 491 1420.0 324.0Q1333 157 1171.0 68.5Q1009 -20 793 -20Q461 -20 272.5 175.5Q84 371 84 711Q84 1050 272.0 1240.0Q460 1430 795 1430Q1130 1430 1318.5 1238.0Q1507 1046 1507 711ZM1206 711Q1206 939 1098.0 1068.5Q990 1198 795 1198Q597 1198 489.0 1069.5Q381 941 381 711Q381 479 491.5 345.5Q602 212 793 212Q991 212 1098.5 342.0Q1206 472 1206 711Z"/><path transform="translate(815.31 760.00) scale(0.009766 -0.009766)" d="M995 0 381 1085Q399 927 399 831V0H137V1409H474L1097 315Q1079 466 1079 590V1409H1341V0Z"/><path transform="translate(832.15 760.00) scale(0.009766 -0.009766)" d="M795 212Q1062 212 1166 480L1423 383Q1340 179 1179.5 79.5Q1019 -20 795 -20Q455 -20 269.5 172.5Q84 365 84 711Q84 1058 263.0 1244.0Q442 1430 782 1430Q1030 1430 1186.0 1330.5Q1342 1231 1405 1038L1145 967Q1112 1073 1015.5 1135.5Q919 1198 788 1198Q588 1198 484.5 1074.0Q381 950 381 711Q381 468 487.5 340.0Q594 212 795 212Z"/><path transform="translate(849.00 760.00) scale(0.009766 -0.009766)" d="M137 0V1409H1245V1181H432V827H1184V599H432V228H1286V0Z"/><path transform="translate(864.73 760.00) scale(0.009766 -0.009766)" d="M1296 963Q1296 827 1234.0 720.0Q1172 613 1056.5 554.5Q941 496 782 496H432V0H137V1409H770Q1023 1409 1159.5 1292.5Q1296 1176 1296 963ZM999 958Q999 1180 737 1180H432V723H745Q867 723 933.0 783.5Q999 844 999 958Z"/><path transform="translate(880.47 760.00) scale(0.009766 -0.009766)" d="M773 1181V0H478V1181H23V1409H1229V1181Z"/></g></svg>